<?xml version="1.0" encoding="us-ascii" standalone="no"?><svg xmlns="http://www.w3.org/2000/svg" xmlns:xlink="http://www.w3.org/1999/xlink" contentStyleType="text/css" height="376px" preserveAspectRatio="none" style="width:970px;height:376px;background:#FFFFFF;" version="1.1" viewBox="0 0 970 376" width="970px" zoomAndPan="magnify"><defs/><g><text fill="#000000" font-family="Verdana" font-size="22" font-weight="bold" lengthAdjust="spacing" textLength="370" x="295.5" y="35.4209">Correlations explorer schema</text><!--cluster id_corrschema--><g id="cluster_id_corrschema"><rect fill="#FFFFFF" height="312" rx="2.5" ry="2.5" style="stroke:#000000;stroke-width:1.0;" width="626" x="12" y="58.6094"/><text fill="#000000" font-family="Verdana" font-size="14" font-weight="bold" lengthAdjust="spacing" textLength="146" x="252" y="73.6045">CorrelationResults</text></g><!--cluster id_timeseries_data--><g id="cluster_id_timeseries_data"><rect fill="#FFFFFF" height="143" rx="2.5" ry="2.5" style="stroke:#000000;stroke-width:1.0;" width="302" x="662" y="67.1094"/><text fill="#000000" font-family="Verdana" font-size="14" font-weight="bold" lengthAdjust="spacing" textLength="122" x="752" y="82.1045">TimeseriesData</text></g><!--class id_metric--><g id="elem_id_metric"><rect codeLine="10" fill="#FFFFFF" height="84.8906" id="id_metric" rx="2.5" ry="2.5" style="stroke:#000000;stroke-width:1.0;" width="237.3333" x="376.5" y="266.6094"/><ellipse cx="466.9167" cy="280.6094" fill="#FFA500" rx="9" ry="9" style="stroke:#000000;stroke-width:1.0;"/><path d="M462.7604,275.9531 L462.4479,280.4375 L463.901,280.6406 L464.1198,277.3438 L466.2917,277.3438 L466.2917,284.4688 L464.3073,284.4688 L464.3073,285.8594 L469.776,285.8594 L469.776,284.4688 L467.7604,284.4688 L467.7604,277.3438 L469.9167,277.3438 L470.151,280.6406 L471.6042,280.4375 L471.276,275.9531 L462.7604,275.9531 Z " fill="#000000"/><text fill="#000000" font-family="Verdana" font-size="14" font-weight="bold" lengthAdjust="spacing" textLength="49" x="484.4167" y="285.4561">Metric</text><line style="stroke:#000000;stroke-width:1.0;" x1="377.5" x2="612.8333" y1="294.6094" y2="294.6094"/><path d="M389.9167,302.0729 C388.3067,302.0729 387,303.3796 387,304.9896 C387,305.1763 387,305.3629 387.035,305.5379 L383.5,309.0729 L383.5,311.4063 L387,311.4063 L387,309.0729 L389.3333,309.0729 L389.3333,307.9063 L389.3683,307.8713 C389.5433,307.9063 389.73,307.9063 389.9167,307.9063 C391.5267,307.9063 392.8333,306.5996 392.8333,304.9896 C392.8333,303.3796 391.5267,302.0729 389.9167,302.0729 M390.5,303.2396 C391.1417,303.2396 391.6667,303.7646 391.6667,304.4063 C391.6667,305.0479 391.1417,305.5729 390.5,305.5729 C389.8583,305.5729 389.3333,305.0479 389.3333,304.4063 C389.3333,303.7646 389.8583,303.2396 390.5,303.2396 " fill="#DAA520" style="stroke:;stroke-width:0.0;stroke-dasharray:;"/><text fill="#000000" font-family="Verdana" font-size="14" lengthAdjust="spacing" textLength="4" x="393.8333" y="311.6045">&#160;</text><text fill="#000000" font-family="Verdana" font-size="14" font-weight="bold" lengthAdjust="spacing" textLength="87" x="397.8333" y="311.6045">Fingerprint</text><text fill="#000000" font-family="Verdana" font-size="14" lengthAdjust="spacing" textLength="59" x="484.8333" y="311.6045">: UINT64</text><path d="M387,318.3698 C385.0633,318.3698 383.5,319.9331 383.5,321.8698 C383.5,323.8065 385.0633,325.3698 387,325.3698 C388.9367,325.3698 390.5,323.8065 390.5,321.8698 C390.5,319.9331 388.9367,318.3698 387,318.3698 " fill="#FFFFFF" style="stroke:;stroke-width:0.0;stroke-dasharray:;"/><text fill="#000000" font-family="Verdana" font-size="14" lengthAdjust="spacing" textLength="89" x="397.8333" y="327.9014">Name: String</text><path d="M387,334.6667 C385.0633,334.6667 383.5,336.23 383.5,338.1667 C383.5,340.1033 385.0633,341.6667 387,341.6667 C388.9367,341.6667 390.5,340.1033 390.5,338.1667 C390.5,336.23 388.9367,334.6667 387,334.6667 " fill="#FFFFFF" style="stroke:;stroke-width:0.0;stroke-dasharray:;"/><text fill="#000000" font-family="Verdana" font-size="14" lengthAdjust="spacing" textLength="210" x="397.8333" y="344.1982">LabelValues: Map[String]String</text></g><!--class id_window--><g id="elem_id_window"><rect codeLine="10" fill="#FFFFFF" height="84.8906" id="id_window" rx="2.5" ry="2.5" style="stroke:#000000;stroke-width:1.0;" width="289.3333" x="36.5" y="266.6094"/><ellipse cx="126.9167" cy="280.6094" fill="#FFA500" rx="9" ry="9" style="stroke:#000000;stroke-width:1.0;"/><path d="M122.7604,275.9531 L122.4479,280.4375 L123.901,280.6406 L124.1198,277.3438 L126.2917,277.3438 L126.2917,284.4688 L124.3073,284.4688 L124.3073,285.8594 L129.776,285.8594 L129.776,284.4688 L127.7604,284.4688 L127.7604,277.3438 L129.9167,277.3438 L130.151,280.6406 L131.6042,280.4375 L131.276,275.9531 L122.7604,275.9531 Z " fill="#000000"/><text fill="#000000" font-family="Verdana" font-size="14" font-weight="bold" lengthAdjust="spacing" textLength="101" x="144.4167" y="285.4561">TimeWindow</text><line style="stroke:#000000;stroke-width:1.0;" x1="37.5" x2="324.8333" y1="294.6094" y2="294.6094"/><path d="M49.9167,302.0729 C48.3067,302.0729 47,303.3796 47,304.9896 C47,305.1763 47,305.3629 47.035,305.5379 L43.5,309.0729 L43.5,311.4063 L47,311.4063 L47,309.0729 L49.3333,309.0729 L49.3333,307.9063 L49.3683,307.8713 C49.5433,307.9063 49.73,307.9063 49.9167,307.9063 C51.5267,307.9063 52.8333,306.5996 52.8333,304.9896 C52.8333,303.3796 51.5267,302.0729 49.9167,302.0729 M50.5,303.2396 C51.1417,303.2396 51.6667,303.7646 51.6667,304.4063 C51.6667,305.0479 51.1417,305.5729 50.5,305.5729 C49.8583,305.5729 49.3333,305.0479 49.3333,304.4063 C49.3333,303.7646 49.8583,303.2396 50.5,303.2396 " fill="#DAA520" style="stroke:;stroke-width:0.0;stroke-dasharray:;"/><text fill="#000000" font-family="Verdana" font-size="14" lengthAdjust="spacing" textLength="4" x="53.8333" y="311.6045">&#160;</text><text fill="#000000" font-family="Verdana" font-size="14" font-weight="bold" lengthAdjust="spacing" textLength="15" x="57.8333" y="311.6045">ID</text><text fill="#000000" font-family="Verdana" font-size="14" lengthAdjust="spacing" textLength="70" x="72.8333" y="311.6045">: INTEGER</text><path d="M47,318.3698 C45.0633,318.3698 43.5,319.9331 43.5,321.8698 C43.5,323.8065 45.0633,325.3698 47,325.3698 C48.9367,325.3698 50.5,323.8065 50.5,321.8698 C50.5,319.9331 48.9367,318.3698 47,318.3698 " fill="#FFFFFF" style="stroke:;stroke-width:0.0;stroke-dasharray:;"/><text fill="#000000" font-family="Verdana" font-size="14" lengthAdjust="spacing" textLength="262" x="57.8333" y="327.9014">StartTime: UINT64 (UnixSeconds UTC)</text><path d="M47,334.6667 C45.0633,334.6667 43.5,336.23 43.5,338.1667 C43.5,340.1033 45.0633,341.6667 47,341.6667 C48.9367,341.6667 50.5,340.1033 50.5,338.1667 C50.5,336.23 48.9367,334.6667 47,334.6667 " fill="#FFFFFF" style="stroke:;stroke-width:0.0;stroke-dasharray:;"/><text fill="#000000" font-family="Verdana" font-size="14" lengthAdjust="spacing" textLength="257" x="57.8333" y="344.1982">EndTime: UINT64 (UnixSeconds UTC)</text></g><!--class id_metric_status--><g id="elem_id_metric_status"><rect codeLine="10" fill="#FFFFFF" height="84.8906" id="id_metric_status" rx="2.5" ry="2.5" style="stroke:#000000;stroke-width:1.0;" width="197.3333" x="378.5" y="106.1094"/><ellipse cx="423.9167" cy="120.1094" fill="#FFA500" rx="9" ry="9" style="stroke:#000000;stroke-width:1.0;"/><path d="M419.7604,115.4531 L419.4479,119.9375 L420.901,120.1406 L421.1198,116.8438 L423.2917,116.8438 L423.2917,123.9688 L421.3073,123.9688 L421.3073,125.3594 L426.776,125.3594 L426.776,123.9688 L424.7604,123.9688 L424.7604,116.8438 L426.9167,116.8438 L427.151,120.1406 L428.6042,119.9375 L428.276,115.4531 L419.7604,115.4531 Z " fill="#000000"/><text fill="#000000" font-family="Verdana" font-size="14" font-weight="bold" lengthAdjust="spacing" textLength="99" x="441.4167" y="124.9561">MetricStatus</text><line style="stroke:#000000;stroke-width:1.0;" x1="379.5" x2="574.8333" y1="134.1094" y2="134.1094"/><path d="M391.9167,141.5729 C390.3067,141.5729 389,142.8796 389,144.4896 C389,144.6762 389,144.8629 389.035,145.0379 L385.5,148.5729 L385.5,150.9063 L389,150.9063 L389,148.5729 L391.3333,148.5729 L391.3333,147.4063 L391.3683,147.3713 C391.5433,147.4063 391.73,147.4063 391.9167,147.4063 C393.5267,147.4063 394.8333,146.0996 394.8333,144.4896 C394.8333,142.8796 393.5267,141.5729 391.9167,141.5729 M392.5,142.7396 C393.1417,142.7396 393.6667,143.2646 393.6667,143.9063 C393.6667,144.5479 393.1417,145.0729 392.5,145.0729 C391.8583,145.0729 391.3333,144.5479 391.3333,143.9063 C391.3333,143.2646 391.8583,142.7396 392.5,142.7396 " fill="#C0C0C0" style="stroke:;stroke-width:0.0;stroke-dasharray:;"/><text fill="#000000" font-family="Verdana" font-size="14" lengthAdjust="spacing" textLength="118" x="399.8333" y="151.1045">MetricFP: UINT64</text><path d="M391.9167,157.8698 C390.3067,157.8698 389,159.1765 389,160.7865 C389,160.9731 389,161.1598 389.035,161.3348 L385.5,164.8698 L385.5,167.2031 L389,167.2031 L389,164.8698 L391.3333,164.8698 L391.3333,163.7031 L391.3683,163.6681 C391.5433,163.7031 391.73,163.7031 391.9167,163.7031 C393.5267,163.7031 394.8333,162.3965 394.8333,160.7865 C394.8333,159.1765 393.5267,157.8698 391.9167,157.8698 M392.5,159.0365 C393.1417,159.0365 393.6667,159.5615 393.6667,160.2031 C393.6667,160.8448 393.1417,161.3698 392.5,161.3698 C391.8583,161.3698 391.3333,160.8448 391.3333,160.2031 C391.3333,159.5615 391.8583,159.0365 392.5,159.0365 " fill="#C0C0C0" style="stroke:;stroke-width:0.0;stroke-dasharray:;"/><text fill="#000000" font-family="Verdana" font-size="14" lengthAdjust="spacing" textLength="170" x="399.8333" y="167.4014">TimeWindowId: INTEGER</text><path d="M389,174.1667 C387.0633,174.1667 385.5,175.73 385.5,177.6667 C385.5,179.6033 387.0633,181.1667 389,181.1667 C390.9367,181.1667 392.5,179.6033 392.5,177.6667 C392.5,175.73 390.9367,174.1667 389,174.1667 " fill="#FFFFFF" style="stroke:;stroke-width:0.0;stroke-dasharray:;"/><text fill="#000000" font-family="Verdana" font-size="14" lengthAdjust="spacing" textLength="111" x="399.8333" y="183.6982">Constant: BOOL</text></g><!--class id_correlations--><g id="elem_id_correlations"><rect codeLine="10" fill="#FFFFFF" height="101.1875" id="id_correlations" rx="2.5" ry="2.5" style="stroke:#000000;stroke-width:1.0;" width="197.3333" x="98.5" y="97.6094"/><ellipse cx="144.9167" cy="111.6094" fill="#FFA500" rx="9" ry="9" style="stroke:#000000;stroke-width:1.0;"/><path d="M140.7604,106.9531 L140.4479,111.4375 L141.901,111.6406 L142.1198,108.3438 L144.2917,108.3438 L144.2917,115.4688 L142.3073,115.4688 L142.3073,116.8594 L147.776,116.8594 L147.776,115.4688 L145.7604,115.4688 L145.7604,108.3438 L147.9167,108.3438 L148.151,111.6406 L149.6042,111.4375 L149.276,106.9531 L140.7604,106.9531 Z " fill="#000000"/><text fill="#000000" font-family="Verdana" font-size="14" font-weight="bold" lengthAdjust="spacing" textLength="97" x="162.4167" y="116.4561">Correlations</text><line style="stroke:#000000;stroke-width:1.0;" x1="99.5" x2="294.8333" y1="125.6094" y2="125.6094"/><path d="M111.9167,133.0729 C110.3067,133.0729 109,134.3796 109,135.9896 C109,136.1762 109,136.3629 109.035,136.5379 L105.5,140.0729 L105.5,142.4063 L109,142.4063 L109,140.0729 L111.3333,140.0729 L111.3333,138.9063 L111.3683,138.8713 C111.5433,138.9063 111.73,138.9063 111.9167,138.9063 C113.5267,138.9063 114.8333,137.5996 114.8333,135.9896 C114.8333,134.3796 113.5267,133.0729 111.9167,133.0729 M112.5,134.2396 C113.1417,134.2396 113.6667,134.7646 113.6667,135.4063 C113.6667,136.0479 113.1417,136.5729 112.5,136.5729 C111.8583,136.5729 111.3333,136.0479 111.3333,135.4063 C111.3333,134.7646 111.8583,134.2396 112.5,134.2396 " fill="#C0C0C0" style="stroke:;stroke-width:0.0;stroke-dasharray:;"/><text fill="#000000" font-family="Verdana" font-size="14" lengthAdjust="spacing" textLength="134" x="119.8333" y="142.6045">MetricOne : UINT64</text><path d="M111.9167,149.3698 C110.3067,149.3698 109,150.6765 109,152.2865 C109,152.4731 109,152.6598 109.035,152.8348 L105.5,156.3698 L105.5,158.7031 L109,158.7031 L109,156.3698 L111.3333,156.3698 L111.3333,155.2031 L111.3683,155.1681 C111.5433,155.2031 111.73,155.2031 111.9167,155.2031 C113.5267,155.2031 114.8333,153.8965 114.8333,152.2865 C114.8333,150.6765 113.5267,149.3698 111.9167,149.3698 M112.5,150.5365 C113.1417,150.5365 113.6667,151.0615 113.6667,151.7031 C113.6667,152.3448 113.1417,152.8698 112.5,152.8698 C111.8583,152.8698 111.3333,152.3448 111.3333,151.7031 C111.3333,151.0615 111.8583,150.5365 112.5,150.5365 " fill="#C0C0C0" style="stroke:;stroke-width:0.0;stroke-dasharray:;"/><text fill="#000000" font-family="Verdana" font-size="14" lengthAdjust="spacing" textLength="134" x="119.8333" y="158.9014">MetricTwo : UINT64</text><path d="M111.9167,165.6667 C110.3067,165.6667 109,166.9733 109,168.5833 C109,168.77 109,168.9567 109.035,169.1317 L105.5,172.6667 L105.5,175 L109,175 L109,172.6667 L111.3333,172.6667 L111.3333,171.5 L111.3683,171.465 C111.5433,171.5 111.73,171.5 111.9167,171.5 C113.5267,171.5 114.8333,170.1933 114.8333,168.5833 C114.8333,166.9733 113.5267,165.6667 111.9167,165.6667 M112.5,166.8333 C113.1417,166.8333 113.6667,167.3583 113.6667,168 C113.6667,168.6417 113.1417,169.1667 112.5,169.1667 C111.8583,169.1667 111.3333,168.6417 111.3333,168 C111.3333,167.3583 111.8583,166.8333 112.5,166.8333 " fill="#C0C0C0" style="stroke:;stroke-width:0.0;stroke-dasharray:;"/><text fill="#000000" font-family="Verdana" font-size="14" lengthAdjust="spacing" textLength="170" x="119.8333" y="175.1982">TimeWindowId: INTEGER</text><path d="M109,181.9635 C107.0633,181.9635 105.5,183.5269 105.5,185.4635 C105.5,187.4002 107.0633,188.9635 109,188.9635 C110.9367,188.9635 112.5,187.4002 112.5,185.4635 C112.5,183.5269 110.9367,181.9635 109,181.9635 " fill="#FFFFFF" style="stroke:;stroke-width:0.0;stroke-dasharray:;"/><text fill="#000000" font-family="Verdana" font-size="14" lengthAdjust="spacing" textLength="128" x="119.8333" y="191.4951">Pearson: FLOAT32</text></g><!--class id_timeseries_values--><g id="elem_id_timeseries_values"><rect codeLine="10" fill="#FFFFFF" height="84.8906" id="id_timeseries_values" rx="2.5" ry="2.5" style="stroke:#000000;stroke-width:1.0;" width="253.3333" x="686.5" y="106.1094"/><ellipse cx="739.4167" cy="120.1094" fill="#FFA500" rx="9" ry="9" style="stroke:#000000;stroke-width:1.0;"/><path d="M735.2604,115.4531 L734.9479,119.9375 L736.401,120.1406 L736.6198,116.8438 L738.7917,116.8438 L738.7917,123.9688 L736.8073,123.9688 L736.8073,125.3594 L742.276,125.3594 L742.276,123.9688 L740.2604,123.9688 L740.2604,116.8438 L742.4167,116.8438 L742.651,120.1406 L744.1042,119.9375 L743.776,115.4531 L735.2604,115.4531 Z " fill="#000000"/><text fill="#000000" font-family="Verdana" font-size="14" font-weight="bold" lengthAdjust="spacing" textLength="140" x="756.9167" y="124.9561">TimeseriesValues</text><line style="stroke:#000000;stroke-width:1.0;" x1="687.5" x2="938.8333" y1="134.1094" y2="134.1094"/><path d="M699.9167,141.5729 C698.3067,141.5729 697,142.8796 697,144.4896 C697,144.6762 697,144.8629 697.035,145.0379 L693.5,148.5729 L693.5,150.9063 L697,150.9063 L697,148.5729 L699.3333,148.5729 L699.3333,147.4063 L699.3683,147.3713 C699.5433,147.4063 699.73,147.4063 699.9167,147.4063 C701.5267,147.4063 702.8333,146.0996 702.8333,144.4896 C702.8333,142.8796 701.5267,141.5729 699.9167,141.5729 M700.5,142.7396 C701.1417,142.7396 701.6667,143.2646 701.6667,143.9063 C701.6667,144.5479 701.1417,145.0729 700.5,145.0729 C699.8583,145.0729 699.3333,144.5479 699.3333,143.9063 C699.3333,143.2646 699.8583,142.7396 700.5,142.7396 " fill="#DAA520" style="stroke:;stroke-width:0.0;stroke-dasharray:;"/><text fill="#000000" font-family="Verdana" font-size="14" lengthAdjust="spacing" textLength="4" x="703.8333" y="151.1045">&#160;</text><text fill="#000000" font-family="Verdana" font-size="14" font-weight="bold" lengthAdjust="spacing" textLength="68" x="707.8333" y="151.1045">MetricFP</text><text fill="#000000" font-family="Verdana" font-size="14" lengthAdjust="spacing" textLength="59" x="775.8333" y="151.1045">: UINT64</text><path d="M697,157.8698 C695.0633,157.8698 693.5,159.4331 693.5,161.3698 C693.5,163.3065 695.0633,164.8698 697,164.8698 C698.9367,164.8698 700.5,163.3065 700.5,161.3698 C700.5,159.4331 698.9367,157.8698 697,157.8698 " fill="#FFFFFF" style="stroke:;stroke-width:0.0;stroke-dasharray:;"/><text fill="#000000" font-family="Verdana" font-size="14" lengthAdjust="spacing" textLength="226" x="707.8333" y="167.4014">time: UINT64 (UnixSeconds UTC)</text><path d="M697,174.1667 C695.0633,174.1667 693.5,175.73 693.5,177.6667 C693.5,179.6033 695.0633,181.1667 697,181.1667 C698.9367,181.1667 700.5,179.6033 700.5,177.6667 C700.5,175.73 698.9367,174.1667 697,174.1667 " fill="#FFFFFF" style="stroke:;stroke-width:0.0;stroke-dasharray:;"/><text fill="#000000" font-family="Verdana" font-size="14" lengthAdjust="spacing" textLength="107" x="707.8333" y="183.6982">value: FLOAT32</text></g><!--link id_metric_status to id_metric--><g id="link_id_metric_status_id_metric"><path codeLine="68" d="M577,146.1094 C629.36,146.1094 578.92,214.4294 537.26,262.1894 " fill="none" id="id_metric_status-id_metric" style="stroke:#000000;stroke-width:1.0;"/><text fill="#000000" font-family="Verdana" font-size="13" lengthAdjust="spacing" textLength="8" x="583.9763" y="142.5125">n</text><text fill="#000000" font-family="Verdana" font-size="13" lengthAdjust="spacing" textLength="8" x="531.8194" y="255.6081">1</text></g><!--link id_metric_status to id_window--><g id="link_id_metric_status_id_window"><path codeLine="69" d="M378,162.1094 C343.95,162.1094 361.05,306.6094 327,306.6094 " fill="none" id="id_metric_status-id_window" style="stroke:#000000;stroke-width:1.0;"/><text fill="#000000" font-family="Verdana" font-size="13" lengthAdjust="spacing" textLength="8" x="362.4237" y="159.6258">n</text><text fill="#000000" font-family="Verdana" font-size="13" lengthAdjust="spacing" textLength="8" x="333.7893" y="303.2286">1</text></g><!--link id_timeseries_values to id_metric--><g id="link_id_timeseries_values_id_metric"><path codeLine="70" d="M686,146.1094 C647.54,146.1094 665.58,191.3094 638,218.1094 C620.99,234.6394 600.42,249.6694 580.26,262.4994 " fill="none" id="id_timeseries_values-id_metric" style="stroke:#000000;stroke-width:1.0;stroke-dasharray:7.0,7.0;"/><text fill="#000000" font-family="Verdana" font-size="13" lengthAdjust="spacing" textLength="7" x="671.4458" y="142.6051">*</text><text fill="#000000" font-family="Verdana" font-size="13" lengthAdjust="spacing" textLength="8" x="578.2153" y="255.6015">1</text></g><!--link id_correlations to id_metric--><g id="link_id_correlations_id_metric"><path codeLine="71" d="M297,138.1094 C340.4,138.1094 321.58,188.1694 353,218.1094 C370.19,234.4894 390.83,249.5194 410.98,262.3794 " fill="none" id="id_correlations-id_metric" style="stroke:#000000;stroke-width:1.0;"/><text fill="#000000" font-family="Verdana" font-size="13" lengthAdjust="spacing" textLength="7" x="303.9427" y="133.9987">*</text><text fill="#000000" font-family="Verdana" font-size="13" lengthAdjust="spacing" textLength="8" x="396.5038" y="255.4726">2</text></g><!--link id_correlations to id_window--><g id="link_id_correlations_id_window"><path codeLine="72" d="M98,170.1094 C83.55,170.1094 90.01,191.2994 99,202.6094 C163.93,284.2994 261.4,180.6594 326,262.6094 C338.11,277.9694 346.56,306.6094 327,306.6094 " fill="none" id="id_correlations-id_window" style="stroke:#000000;stroke-width:1.0;"/><text fill="#000000" font-family="Verdana" font-size="13" lengthAdjust="spacing" textLength="7" x="83.4604" y="168.2391">*</text><text fill="#000000" font-family="Verdana" font-size="13" lengthAdjust="spacing" textLength="8" x="333.7893" y="318.9083">n</text></g><!--SRC=[hLFRRXen47ttLqpSg88AY9fMVK2hbTBSX9I424ZoK5MHMK_0YjUxjRsGAEBVuxsHNGYaLDqtpvmvSsRcx9wTOeWGIoOKcGgEW65ido54Eusu8MGlrb60FD48-oPmODROLop4bdlAPD8aCGiUsGI1Pc4ApEGPyBm11fQfYKJV9tke-9AgJclPME8AAoehd0pgZVqiuHsC_HetD4Ojw6j7ZqtOpZyJED-T_hO5HtyI5Z8jb6kHadpG9txCkpI95qGoqjrFvv7ag0OHzxtFZ_ZiUmTPmeTgtssK3skKGo5dg5VvCj0s8eTBGbMIlJm8b7m19UdTL5Xqd25omTeQWqZp3yY9Mw1qLp-Ej4R9h8YK0NoANGLgo9r22IazKyKDq2JI6je2AlYzwwKBU1DU287I4FGIhHP10GlpHme1zwNBfcV2NL_7xa2MDhjmqxiQ_VYUfujvwLNgIPSRkcergUSks1ZbBPC9cXHooU9VEUpt4hsewXc94E-4uj6yq3JF7pLDlPEKooavFJyTrFiDBTCs9NaJ2uqR9Pw6Rk6A6xWP7JVh9QUA_qN1OdrhhfTDJ6rtzoQFBUKwSnNei-lL_QMvjtbxVEDGn-xkxYVF3l2ptxzObLFrH-NYoz0xQlhA3GpBYLVJetbKIUyezngPDf5AysSN_QFHjyDCyABYr9J7e1PeJfXbXMQx3DxpD9hBhZeZpnPsMYkQ5JQhMcNJxakjTYUhP1tUcQlsYtLMtT3jbYe0gABGRWFzIc53qHlwGzhgDROovpzHjzix8UjxxhotnOfc-eL2f_Elagj6B77EV93HfdeF_mDjVH45iTg-2F8A]--></g></svg>